<svg xmlns="http://www.w3.org/2000/svg" width="24" height="24" viewBox="0 0 24 24">
    <g fill="none" fill-rule="evenodd" stroke-linecap="round" stroke-linejoin="round">
        <g stroke="#253999" stroke-width="1.5">
            <g>
                <g>
                    <path d="M0 11.787v-.219c.033-.648.24-1.276.602-1.818.603-.653 1.015-1.452 1.194-2.314 0-.666 0-1.342.058-2.009C2.154 2.218 5.327 0 8.46 0h.078c3.133 0 6.306 2.218 6.617 5.427.058.667 0 1.343.048 2.009.181.864.593 1.666 1.193 2.323.365.538.573 1.164.602 1.81v.209c.022.87-.278 1.719-.844 2.39-.748.783-1.763 1.271-2.853 1.37-3.195.343-6.419.343-9.614 0-1.089-.103-2.102-.59-2.853-1.37-.557-.672-.853-1.515-.834-2.38z" transform="translate(-874 -56) translate(874 56) translate(3.5 2)"/>
                    <path d="M6.055 18.852c.5.626 1.232 1.032 2.037 1.127.805.094 1.615-.13 2.251-.623.196-.145.372-.315.524-.504" opacity=".7" transform="translate(-874 -56) translate(874 56) translate(3.5 2)"/>
                </g>
            </g>
        </g>
    </g>
</svg>
