<svg xmlns="http://www.w3.org/2000/svg" width="24" height="24" viewBox="0 0 24 24">
    <g fill="none" fill-rule="evenodd" opacity=".5">
        <g>
            <g>
                <g>
                    <g>
                        <path d="M0 0H20V20H0z" transform="translate(-16 -338) translate(0 330) translate(16 8) translate(2 2)"/>
                        <g fill="#0C135F">
                            <path d="M13.333 7.855c1.473 0 2.667 1.172 2.667 2.618v5.236c0 1.446-1.194 2.618-2.667 2.618H2.667C1.194 18.327 0 17.155 0 15.71v-5.236c0-1.446 1.194-2.618 2.667-2.618V5.236C2.667 2.344 5.054 0 8 0s5.333 2.344 5.333 5.236v2.619zM8 1.745c1.964 0 3.556 1.563 3.556 3.491v2.619H4.444V5.236c0-1.928 1.592-3.49 3.556-3.49zM13.333 9.6H2.667c-.491 0-.89.39-.89.873v5.236c0 .482.399.873.89.873h10.666c.491 0 .89-.39.89-.873v-5.236c0-.482-.399-.873-.89-.873z" transform="translate(-16 -338) translate(0 330) translate(16 8) translate(2 2) translate(2 1)"/>
                        </g>
                    </g>
                </g>
            </g>
        </g>
    </g>
</svg>
