<svg xmlns="http://www.w3.org/2000/svg" width="24" height="24" viewBox="0 0 24 24">
    <g fill="none" fill-rule="evenodd">
        <g fill="#0C135F">
            <g>
                <g>
                    <path d="M6.644 18.782v-3.067c0-.777.632-1.408 1.414-1.413h2.875c.786 0 1.423.633 1.423 1.413v3.058c0 .674.548 1.222 1.227 1.227h1.96c.917.002 1.796-.357 2.444-1C18.636 18.36 19 17.488 19 16.579V7.866c0-.735-.328-1.431-.895-1.902L11.443.674C10.279-.25 8.615-.22 7.485.745L.967 5.964C.373 6.42.017 7.12 0 7.866v8.703C0 18.464 1.547 20 3.456 20h1.916c.327.002.641-.125.873-.354.232-.228.363-.54.363-.864h.036z" transform="translate(-16 -298) translate(0 290) translate(16 8) translate(2.5 2)"/>
                </g>
            </g>
        </g>
    </g>
</svg>
