<svg xmlns="http://www.w3.org/2000/svg" width="97" height="20" viewBox="0 0 97 20">
    <g fill="none" fill-rule="evenodd">
        <g fill="#0C135F">
            <g>
                <path d="M36.549 0l-.005 4.298H6.978v3.253l12.638-.002c2.031.12 3.616.62 4.711 1.489 1.244.989 1.81 2.368 1.729 4.224l-.041 1.273c.011 1.951-.548 3.382-1.71 4.375-1.08.923-2.814 1.39-5.153 1.39-.184 0-.373-.002-.58-.009H0l.002-4.496h19.363v-3.251l-14.523.01c-1.245-.232-2.26-.65-3.013-1.24-1.21-.95-1.794-2.355-1.78-4.3L.05 5.757C.04 3.818.647 2.414 1.91 1.464 3.197.492 5.077 0 7.495 0h29.054zm-.006 7.55l-.009 12.741h-6.928l.01-12.74h6.927zM58.716 0c2.613 0 4.53.526 5.7 1.563 1.166 1.036 1.733 2.408 1.735 4.196l-.01 9.637h3.84L69.993 0h18.555c2.544.08 4.455.612 5.678 1.581 1.199.951 1.78 2.317 1.774 4.178l-.003 2.505c-.006 1.872-.606 3.306-1.834 4.384-1.063.934-2.629 1.408-4.654 1.408-.297 0-.605-.01-.955-.031H80.48V8.773h6.488c1.275 0 1.942-.89 1.942-1.771 0-.87-.667-1.75-1.94-1.75H76.917l-.011 15.04H47.568c-2.621 0-4.548-.489-5.727-1.451-1.163-.95-1.722-2.359-1.708-4.306l.01-1.764c-.017-1.606.542-2.85 1.706-3.8 1.015-.828 2.59-1.307 4.652-1.42h12.202l.512-.03V4.297H40.14L40.144 0zm.499 12.544h-12.48v3.25h12.48v-3.25z" transform="translate(-52 -48) translate(52.143 48)"/>
            </g>
        </g>
    </g>
</svg>
